<svg viewBox="0 0 38 38" ><path pid="0" fill="#1111b7" d="M15.72 21.39v1.07L8.7 38s2.38.06 3.41-1 13.65-15.8 13.65-15.8zm0-4.78v-1.07L8.7 0s2.38-.06 3.41 1 13.65 15.8 13.65 15.8zm-8.44 3.96-4.44-.88-2.71 6.54h1.8l5.35-5.66zM2.84 18.5.13 12h1.8l5.35 5.72z"></path><path pid="1" fill="#0c0c96" d="m2.06 16.74 4-.32.71.69-4.12.95-.58-1.32z"></path><path pid="2" fill="#4141e5" d="M11.34 16.35h20.22c1.16 0 6.44 1.2 6.44 2.65s-5.28 2.64-6.44 2.64H11.34C10.18 21.64 0 20.44 0 19s10.18-2.71 11.34-2.65z"></path><path pid="3" fill="#8484f4" d="M38 19c0 1.44-5.28 2.64-6.44 2.64H11.34C10.18 21.64 0 20.44 0 19c6.83 1.19 31.3 1.44 38 0z"></path><path pid="4" fill="#0a0a7a" d="m18 25.41 1.48-.31h2.22a1 1 0 0 1 1 .94V27a1 1 0 0 1-1 .95h-2.25L18 27.68c-.71-.13-1.16-.44-1.16-.95v-.44c-.03-.5.68-.75 1.16-.88zm0-12.9 1.48.32h2.22a1 1 0 0 0 1-.95v-.94a1 1 0 0 0-1-.94h-2.25l-1.45.25c-.71.12-1.16.44-1.16.94v.44c-.03.5.68.69 1.16.88z"></path><path pid="5" fill="#0c0c96" d="m24.67 15.53.64.76h-9.53v-.76z"></path></svg>
