<svg xmlns="http://www.w3.org/2000/svg" viewBox="0 0 22 22" fill="none"><path fill="currentColor" d="M20 2.5h-2a1 1 0 0 1-1-1 1 1 0 1 0-2 0v4a1 1 0 1 0 2 0 1 1 0 0 1 1-1h.5A1.5 1.5 0 0 1 20 6v11.5a2 2 0 0 1-2 2H4a2 2 0 0 1-2-2v-12a1 1 0 0 1 1-1 1 1 0 0 0 0-2H2a2 2 0 0 0-2 2v15a2 2 0 0 0 2 2h18a2 2 0 0 0 2-2v-15a2 2 0 0 0-2-2Z"/><path fill="currentColor" d="M7 5.5a1 1 0 0 1 1-1h5a1 1 0 1 0 0-2H8a1 1 0 0 1-1-1 1 1 0 0 0-2 0v4a1 1 0 0 0 2 0ZM4 10.5a2 2 0 1 0 4 0 2 2 0 0 0-4 0ZM9 10.5a2 2 0 1 0 4 0 2 2 0 0 0-4 0ZM14 10.5a2 2 0 1 0 4 0 2 2 0 0 0-4 0ZM4 15.5a2 2 0 1 0 4 0 2 2 0 0 0-4 0ZM9 15.5a2 2 0 1 0 4 0 2 2 0 0 0-4 0Z"/></svg>
